<svg width="94" height="115" viewBox="0 0 94 115" fill="none" xmlns="http://www.w3.org/2000/svg">
<path d="M46.6137 32.2113C46.6137 32.2113 63.417 70.1491 90.1667 96.9919C114.192 121.1 -21.8491 120.183 3.06062 96.9919C32.7897 69.314 46.6137 32.2113 46.6137 32.2113Z" fill="url(#paint0_linear_192_11)"/>
<path d="M32.8826 7.81821C30.7985 -2.71872 64.5025 -2.49281 61.4314 7.81821C55.3492 28.2383 61.4314 65.8543 61.4314 65.8543H32.8826C32.8826 65.8543 38.7165 37.3139 32.8826 7.81821Z" fill="url(#paint1_linear_192_11)"/>
<path d="M47.7163 107.535C45.6984 103.211 45.5933 81.4562 45.5933 81.4562C45.5933 81.4562 42.4753 80.876 39.8253 79.7035C36.5113 78.2371 32.899 76.5172 34.326 66.7478C35.753 56.9784 50.4467 36.5359 50.4467 36.5359C50.4467 36.5359 53.2331 54.1664 57.0534 64.4114C60.3208 73.1736 57.794 76.9211 55.4861 78.4285C53.0194 80.0396 48.8358 81.1922 48.8358 81.1922C48.8358 81.1922 50.4468 100.621 51.4418 107.231C51.659 108.675 48.3336 108.857 47.7163 107.535Z" fill="url(#paint2_linear_192_11)"/>
<defs>
<linearGradient id="paint0_linear_192_11" x1="46.5125" y1="0" x2="46.5125" y2="114.731" gradientUnits="userSpaceOnUse">
<stop stop-color="#62FF45"/>
<stop offset="0.379808" stop-color="#7DA6E8"/>
<stop offset="1" stop-color="#9C87FC"/>
</linearGradient>
<linearGradient id="paint1_linear_192_11" x1="46.5125" y1="0" x2="46.5125" y2="114.731" gradientUnits="userSpaceOnUse">
<stop stop-color="#62FF45"/>
<stop offset="0.379808" stop-color="#7DA6E8"/>
<stop offset="1" stop-color="#9C87FC"/>
</linearGradient>
<linearGradient id="paint2_linear_192_11" x1="58.6587" y1="71.7772" x2="34.1941" y2="73.7689" gradientUnits="userSpaceOnUse">
<stop offset="1" stop-color="white"/>
</linearGradient>
</defs>
</svg>
