<svg width="78" height="101" viewBox="0 0 78 101" fill="none" xmlns="http://www.w3.org/2000/svg">
<path d="M38.7331 26.7656C38.7331 26.7656 52.6956 58.2896 74.923 80.5943C94.8862 100.627 -18.1553 99.8647 2.54319 80.5943C27.2462 57.5957 38.7331 26.7656 38.7331 26.7656Z" fill="url(#paint0_linear_192_11)"/>
<path d="M27.3234 6.49645C25.5917 -2.25909 53.5976 -2.07137 51.0457 6.49645C45.9918 23.4643 51.0457 54.7209 51.0457 54.7209H27.3234C27.3234 54.7209 32.171 31.0056 27.3234 6.49645Z" fill="url(#paint1_linear_192_11)"/>
<path d="M39.3534 40.1155C39.3534 40.1155 49.3599 62.5405 65.2896 78.4073C79.5965 92.6578 -1.41655 92.1156 13.4173 78.4073C31.1212 62.0469 39.3534 40.1155 39.3534 40.1155Z" fill="url(#paint2_linear_192_11)"/>
<path d="M33.5115 11.0629C32.2704 4.83449 47.5761 4.96803 45.7472 11.0629C42.1253 23.1332 48.1775 60.0018 48.1775 60.0018H31.1765C31.1765 60.0018 36.9856 28.4978 33.5115 11.0629Z" fill="url(#paint3_linear_192_11)"/>
<path d="M24.2619 95.6116C24.143 90.9508 32.5449 71.4242 32.5449 71.4242C32.5449 71.4242 29.9787 69.6868 28.0631 67.6017C25.6675 64.994 23.1036 62.0427 28.1971 53.8496C33.2906 45.6565 54.4354 33.0846 54.4354 33.0846C54.4354 33.0846 50.0457 49.9645 49.4664 60.6329C48.971 69.7572 45.2443 72.127 42.5883 72.5759C39.7498 73.0556 35.5523 72.4541 35.5523 72.4541C35.5523 72.4541 29.4076 90.4855 27.7172 96.7949C27.3481 98.1727 24.2982 97.0375 24.2619 95.6116Z" fill="#2C9774"/>
<path d="M24.2619 95.6116C24.143 90.9508 32.5449 71.4242 32.5449 71.4242C32.5449 71.4242 29.9787 69.6868 28.0631 67.6017C25.6675 64.994 23.1036 62.0427 28.1971 53.8496C33.2906 45.6565 54.4354 33.0846 54.4354 33.0846C54.4354 33.0846 50.0457 49.9645 49.4664 60.6329C48.971 69.7572 45.2443 72.127 42.5883 72.5759C39.7498 73.0556 35.5523 72.4541 35.5523 72.4541C35.5523 72.4541 29.4076 90.4855 27.7172 96.7949C27.3481 98.1727 24.2982 97.0375 24.2619 95.6116Z" fill="url(#paint4_linear_192_11)"/>
<defs>
<linearGradient id="paint0_linear_192_11" x1="38.649" y1="0" x2="38.649" y2="95.3343" gradientUnits="userSpaceOnUse">
<stop stop-color="#93FB7F"/>
<stop offset="1" stop-color="#9D84FF"/>
</linearGradient>
<linearGradient id="paint1_linear_192_11" x1="38.649" y1="0" x2="38.649" y2="95.3343" gradientUnits="userSpaceOnUse">
<stop stop-color="#93FB7F"/>
<stop offset="1" stop-color="#9D84FF"/>
</linearGradient>
<linearGradient id="paint2_linear_192_11" x1="39.2932" y1="21.0753" x2="39.2932" y2="88.8928" gradientUnits="userSpaceOnUse">
<stop stop-color="white"/>
<stop offset="1" stop-color="#C8C8C8"/>
</linearGradient>
<linearGradient id="paint3_linear_192_11" x1="39.2932" y1="21.0753" x2="39.2932" y2="88.8928" gradientUnits="userSpaceOnUse">
<stop stop-color="white"/>
<stop offset="1" stop-color="#C8C8C8"/>
</linearGradient>
<linearGradient id="paint4_linear_192_11" x1="48.0277" y1="67.8574" x2="25.3369" y2="60.0868" gradientUnits="userSpaceOnUse">
<stop stop-color="#CAEE3A" stop-opacity="0"/>
<stop offset="1" stop-color="#CAEE3A"/>
</linearGradient>
</defs>
</svg>
